<?xml version="1.0" encoding="utf-8"?>
<!-- Generator: Adobe Illustrator 23.0.3, SVG Export Plug-In . SVG Version: 6.00 Build 0)  -->
<svg version="1.1"
	 id="svg2" inkscape:version="0.91 r13725" sodipodi:docname="Google_Camera_Icon.svg" xmlns:cc="http://creativecommons.org/ns#" xmlns:dc="http://purl.org/dc/elements/1.1/" xmlns:inkscape="http://www.inkscape.org/namespaces/inkscape" xmlns:rdf="http://www.w3.org/1999/02/22-rdf-syntax-ns#" xmlns:sodipodi="http://sodipodi.sourceforge.net/DTD/sodipodi-0.dtd" xmlns:svg="http://www.w3.org/2000/svg"
	 xmlns="http://www.w3.org/2000/svg" xmlns:xlink="http://www.w3.org/1999/xlink" x="0px" y="0px" viewBox="0 0 850.4 425.2"
	 style="enable-background:new 0 0 850.4 425.2;" xml:space="preserve">
<style type="text/css">
	.st0{opacity:0.3;}
	.st1{display:none;fill:#848585;}
	.st2{fill:#FFFFFF;}
	.st3{fill:#E1E2E3;stroke:url(#rect4158_1_);stroke-width:4.5089;stroke-linecap:square;}
	.st4{fill:url(#rect4225_1_);}
	.st5{fill-rule:evenodd;clip-rule:evenodd;fill:url(#path4163_1_);}
	.st6{fill-rule:evenodd;clip-rule:evenodd;fill:url(#path4173_1_);}
	.st7{fill-rule:evenodd;clip-rule:evenodd;fill:#DF513F;}
	.st8{fill:#868787;}
	.st9{fill-rule:evenodd;clip-rule:evenodd;fill:#5980C1;}
	.st10{fill-rule:evenodd;clip-rule:evenodd;fill:#4858A7;}
	.st11{fill-rule:evenodd;clip-rule:evenodd;fill:url(#path4264_1_);}
	.st12{display:none;}
	.st13{display:inline;}
	.st14{fill:#686868;}
	.st15{fill:#999999;}
</style>
<g id="layer1" transform="translate(0,-752.36216)" inkscape:groupmode="layer" inkscape:label="Layer 1" class="st0">
	<path id="rect4160" inkscape:connector-curvature="0" sodipodi:nodetypes="sssccss" class="st1" d="M150.1,799.3h85.5
		c12.1,0,21.9,9.7,21.9,21.9v30H128.2v-30C128.2,809,138,799.3,150.1,799.3z"/>
	<g>
		<rect id="rect4223" x="358.8" y="1009.2" class="st2" width="152.3" height="166"/>
		
			<linearGradient id="rect4158_1_" gradientUnits="userSpaceOnUse" x1="426.6923" y1="325.2901" x2="426.6923" y2="-168.2174" gradientTransform="matrix(0.9933 0 0 -0.9956 1.3421 1160.0973)">
			<stop  offset="0" style="stop-color:#D7D7D8"/>
			<stop  offset="1" style="stop-color:#B5B3B3"/>
		</linearGradient>
		<path id="rect4158" class="st3" d="M126.9,837.7h596.6c21.8,0,39.5,17.7,39.5,39.5v426.6c0,21.8-17.7,39.5-39.5,39.5H126.9
			c-21.8,0-39.5-17.7-39.5-39.5V877.2C87.4,855.4,105.1,837.7,126.9,837.7z"/>
		
			<linearGradient id="rect4225_1_" gradientUnits="userSpaceOnUse" x1="319.5828" y1="-61.4827" x2="335.6132" y2="-43.1622" gradientTransform="matrix(1 0 0 -1 0 1161.2067)">
			<stop  offset="0" style="stop-color:#8DBD54"/>
			<stop  offset="1" style="stop-color:#91C651"/>
		</linearGradient>
		<path id="rect4225" inkscape:connector-curvature="0" sodipodi:nodetypes="cccccc" class="st4" d="M258.6,1151.2l154.4,0.7
			l72.2-26.9L404,1267.4l-93.9-7.4L258.6,1151.2z"/>
		
			<linearGradient id="path4163_1_" gradientUnits="userSpaceOnUse" x1="364.3831" y1="228.1277" x2="385.6771" y2="162.5455" gradientTransform="matrix(1 0 0 -1 0 1161.2067)">
			<stop  offset="0" style="stop-color:#D27138"/>
			<stop  offset="1" style="stop-color:#FF7D34"/>
		</linearGradient>
		<path id="path4163" inkscape:connector-curvature="0" sodipodi:nodetypes="ccccc" class="st5" d="M365.3,1109.7l-73.1-126.6
			c61.9-70.6,115-63.8,156.5-62.8L372.6,1052C358.3,1076.6,361.3,1090.9,365.3,1109.7L365.3,1109.7z"/>
		
			<linearGradient id="path4173_1_" gradientUnits="userSpaceOnUse" x1="260.6914" y1="102.1487" x2="338.7932" y2="66.5238" gradientTransform="matrix(1 0 0 -1 0 1161.2067)">
			<stop  offset="0" style="stop-color:#D8A73F"/>
			<stop  offset="1" style="stop-color:#FEBF24"/>
		</linearGradient>
		<path id="path4173" inkscape:connector-curvature="0" sodipodi:nodetypes="ccccc" class="st6" d="M292,982.4l73.3,127.2
			c9.4,21.8,26,38.5,52.6,43.1H266.5C248.2,1094.5,254.2,1036.3,292,982.4z"/>
		<path id="path4183" inkscape:connector-curvature="0" sodipodi:nodetypes="ccccc" class="st7" d="M372.2,1052.6
			c9.9-11.9,23.1-18.8,41.7-23.3l170.4-3.4c-40.3-76.9-87.1-95.8-135.9-105.5L372.2,1052.6z"/>
		
			<ellipse id="path4217" transform="matrix(0.9239 -0.3827 0.3827 0.9239 -295.0669 333.6567)" class="st8" cx="691.2" cy="908.5" rx="32.8" ry="32.8"/>
		<path id="path4219" inkscape:connector-curvature="0" sodipodi:nodetypes="ccccc" class="st9" d="M431.3,1025.9
			c25.9,5.1,46.6,16.1,54.2,43.8l74.1,125.1c24.4-41.7,49.7-82.3,24.7-169.2L431.3,1025.9z"/>
		<path id="path4221" inkscape:connector-curvature="0" sodipodi:nodetypes="ccccc" class="st10" d="M560.3,1193.5
			c-36.3,41.8-83,70.7-158,63.5l72.6-125.7c8.6-14,16.7-28.4,12.4-59.6L560.3,1193.5z"/>
		<path id="path4236" class="st2" d="M423.7,877.9c-117,0-211.8,95-211.8,212.1c0,0,0,0,0,0c0,117.2,94.8,212.1,211.8,212.1
			c117,0,211.8-95,211.8-212.1C635.6,972.9,540.7,877.9,423.7,877.9C423.7,877.9,423.7,877.9,423.7,877.9z M424.9,919.5
			c93.6,0,169.5,76.3,169.5,170.4c0,0,0,0,0,0c0,94.1-75.9,170.4-169.5,170.4c-93.6,0-169.5-76.3-169.5-170.4
			C255.4,995.8,331.3,919.5,424.9,919.5C424.9,919.5,424.9,919.5,424.9,919.5z"/>
		<ellipse id="path4244" class="st2" cx="425.4" cy="1089.7" rx="64.6" ry="64.2"/>
		
			<radialGradient id="path4264_1_" cx="505.9888" cy="329.0396" r="205.9571" gradientTransform="matrix(1.2015 1.0533 1.1958 -1.364 -574.8466 1008.5288)" gradientUnits="userSpaceOnUse">
			<stop  offset="0" style="stop-color:#000000"/>
			<stop  offset="1" style="stop-color:#FFFFFF;stop-opacity:0"/>
		</radialGradient>
		<path id="path4264" inkscape:connector-curvature="0" sodipodi:nodetypes="ccccc" class="st11" d="M335.9,1284l55.5,55.5
			c278,4.9,325.6,8.6,354.4-239.9l-150-138.5C739.8,1220.1,462.8,1359.1,335.9,1284z"/>
	</g>
</g>
<g class="st12">
	<g class="st13">
		<path class="st14" d="M353.4,303.2L316,323.7l-15.9-23.1c-5.4,1.5-10,2.2-13.8,2.2c-18.4,0-33.8-7.5-46.1-22.5
			c-13.1-16-19.6-38.1-19.6-66.2c0-27.3,5.9-49,17.8-65.1c11.9-16.3,27.8-24.4,47.7-24.4c19.4,0,35.2,8.1,47.3,24.2
			c12.1,16.1,18.2,37.1,18.2,63c0,29.5-6.5,52.1-19.5,67.8L353.4,303.2z M303.4,214.7c0-7.4-0.4-13.9-1.2-19.7
			c-0.8-5.8-2-10.7-3.5-14.7c-1.5-4-3.3-7-5.5-9.1c-2.2-2.1-4.7-3.2-7.4-3.2c-5.2,0-9.4,4.2-12.5,12.5c-3,8.9-4.6,20.1-4.6,33.6
			c0,7.1,0.4,13.5,1.2,19.2c0.8,5.7,1.9,10.4,3.3,14.3c1.4,3.9,3.3,6.8,5.4,8.9c2.2,2,4.6,3.1,7.2,3.1c2.7,0,5.2-1,7.4-3
			c2.2-2,4-4.9,5.5-8.8c1.5-3.9,2.7-8.5,3.5-14C303,228,303.4,221.7,303.4,214.7z"/>
		<path class="st14" d="M521.3,299.9H471l-6.7-9.4c-12.4,8.3-25.2,12.4-38.2,12.4c-15.2,0-28-5.2-38.6-15.5
			c-10.6-10.4-15.9-23-15.9-37.7c0-19.1,9.9-34.3,29.7-45.6c-8.8-11.3-13.3-22.6-13.3-33.8c0-12.6,4.6-23.4,13.9-32.3
			c9.2-8.9,20.5-13.4,33.9-13.4c14.4,0,26.7,4.5,36.9,13.6c10.3,9.1,15.4,20,15.4,32.9c0,17.2-9.8,32.1-29.3,44.8l16.9,22.2
			c2-2.2,4.3-4.9,7-8.1c2.7-3.3,5.7-7.2,9-11.7l23.6,31.7c-3.2,3.6-6.3,6.8-9.2,9.7c-2.9,2.9-5.8,5.6-8.5,8.1L521.3,299.9z
			 M423.7,236c-5.4,3.2-8.1,7.5-8.1,12.8c0,3.9,1.3,7.3,3.9,10.1c2.5,2.8,5.7,4.1,9.5,4.1c4,0,7.9-1.6,11.7-4.7L423.7,236z
			 M438.1,186.2c7.1-6.9,10.7-12.6,10.7-17.2c0-2.6-0.9-4.8-2.7-6.5c-1.8-1.7-4-2.6-6.6-2.6c-1.3,0-2.6,0.2-3.7,0.7
			c-1.2,0.5-2.2,1.1-3.1,2c-0.9,0.8-1.6,1.8-2.1,2.9c-0.5,1.1-0.8,2.3-0.8,3.5C429.9,172.3,432.6,178,438.1,186.2z"/>
		<path class="st14" d="M659.9,299.9h-48.1l-3.5-21.9H577l-3.8,21.9h-48.1l41.4-172.2h56.9L659.9,299.9z M602.9,241.1l-3-20.1
			c-0.1-0.1-0.2-1.1-0.4-3c-0.1-1.6-0.9-8.1-2.3-19.4c-0.1-1.3-0.3-3-0.6-5.2c-0.2-2.2-0.5-5-0.9-8.3l-1.4-16.3
			c-0.2,1.6-0.4,3.3-0.6,5.2c-0.3,1.9-0.5,4.1-0.8,6.4c-0.5,4.6-0.9,7.8-1.1,9.6c-0.2,1.8-0.4,2.9-0.4,3.2l-3.2,20.9l-4.7,27H602.9z
			"/>
	</g>
</g>
<g>
	<g>
		<path class="st15" d="M341.5,315.1l-37.4,20.5l-15.9-23.1c-5.4,1.5-10,2.2-13.8,2.2c-18.4,0-33.8-7.5-46.1-22.5
			c-13.1-16-19.6-38.1-19.6-66.2c0-27.3,5.9-49,17.8-65.1c11.9-16.3,27.8-24.4,47.7-24.4c19.4,0,35.2,8.1,47.3,24.2
			c12.1,16.1,18.2,37.1,18.2,63c0,29.5-6.5,52.1-19.5,67.8L341.5,315.1z M291.5,226.5c0-7.4-0.4-13.9-1.2-19.7
			c-0.8-5.8-2-10.7-3.5-14.7c-1.5-4-3.3-7-5.5-9.1c-2.2-2.1-4.7-3.2-7.4-3.2c-5.2,0-9.4,4.2-12.5,12.5c-3,8.9-4.6,20.1-4.6,33.6
			c0,7.1,0.4,13.5,1.2,19.2c0.8,5.7,1.9,10.4,3.3,14.3c1.4,3.9,3.3,6.8,5.4,8.9c2.2,2,4.6,3.1,7.2,3.1c2.7,0,5.2-1,7.4-3
			c2.2-2,4-4.9,5.5-8.8c1.5-3.9,2.7-8.5,3.5-14C291.1,239.9,291.5,233.6,291.5,226.5z"/>
		<path class="st15" d="M509.4,311.7h-50.3l-6.7-9.4c-12.4,8.3-25.2,12.4-38.2,12.4c-15.2,0-28-5.2-38.6-15.5
			c-10.6-10.4-15.9-23-15.9-37.7c0-19.1,9.9-34.3,29.7-45.6c-8.8-11.3-13.3-22.6-13.3-33.8c0-12.6,4.6-23.4,13.9-32.3
			c9.2-8.9,20.5-13.4,33.9-13.4c14.4,0,26.7,4.5,36.9,13.6c10.3,9.1,15.4,20,15.4,32.9c0,17.2-9.8,32.1-29.3,44.8l16.9,22.2
			c2-2.2,4.3-4.9,7-8.1c2.7-3.3,5.7-7.2,9-11.7l23.6,31.7c-3.2,3.6-6.3,6.8-9.2,9.7c-2.9,2.9-5.8,5.6-8.5,8.1L509.4,311.7z
			 M411.8,247.8c-5.4,3.2-8.1,7.5-8.1,12.8c0,3.9,1.3,7.3,3.9,10.1c2.5,2.8,5.7,4.1,9.5,4.1c4,0,7.9-1.6,11.7-4.7L411.8,247.8z
			 M426.2,198.1c7.1-6.9,10.7-12.6,10.7-17.2c0-2.6-0.9-4.8-2.7-6.5c-1.8-1.7-4-2.6-6.6-2.6c-1.3,0-2.6,0.2-3.7,0.7
			c-1.2,0.5-2.2,1.1-3.1,2c-0.9,0.8-1.6,1.8-2.1,2.9c-0.5,1.1-0.8,2.3-0.8,3.5C417.9,184.1,420.7,189.9,426.2,198.1z"/>
		<path class="st15" d="M648,311.7h-48.1l-3.5-21.9h-31.3l-3.8,21.9h-48.1l41.4-172.2h56.9L648,311.7z M591,252.9l-3-20.1
			c-0.1-0.1-0.2-1.1-0.4-3c-0.1-1.6-0.9-8.1-2.3-19.4c-0.1-1.3-0.3-3-0.6-5.2c-0.2-2.2-0.5-5-0.9-8.3l-1.4-16.3
			c-0.2,1.6-0.4,3.3-0.6,5.2c-0.3,1.9-0.5,4.1-0.8,6.4c-0.5,4.6-0.9,7.8-1.1,9.6c-0.2,1.8-0.4,2.9-0.4,3.2l-3.2,20.9l-4.7,27H591z"
			/>
	</g>
</g>
</svg>
